<?xml version="1.0" encoding="utf-8"?>
<!-- Generator: Adobe Illustrator 21.1.0, SVG Export Plug-In . SVG Version: 6.00 Build 0)  -->
<svg xmlns:xlink="http://www.w3.org/1999/xlink" version="1.1" id="Warstwa_1" xmlns="http://www.w3.org/2000/svg" x="0px" y="0px"
	 viewBox="0 0 32 32" style="enable-background:new 0 0 32 32;" xml:space="preserve">
<style type="text/css">
	.st0{fill:none;stroke:#000000;stroke-width:1.5;stroke-linecap:round;stroke-linejoin:round;stroke-miterlimit:10;}
</style>
<g>
	<path class="st0" d="M29.4,13.9c1-1.3,1.6-2.9,1.6-4.7C31,4.8,27.2,1,22.7,1c-2.9,0-5.3,1.9-6.7,4.1C14.5,2.9,12.2,1,9.3,1
		C4.8,1,1,4.8,1,9.3c0,1.8,0.6,3.3,1.6,4.7l11.9,16l0,0c0.4,0.5,0.9,1,1.6,1c0.7,0,1.2-0.5,1.5-1l0,0L29.4,13.9z"/>
</g>
</svg>
